Patient4_TMGait_0pt7_01_left_29_EMG.mot
version=1
nRows=30
nColumns=33
inDegrees=no
endheader
time	1LAddLong	2LGlutMax	3LGlutMed	4LIliopsoas	5LSemiMemb	6LBicFemLong	7LRecFem	8LVastMed	9LVastLat	10LGasMed	11LTibAnt	12lTibPost	13LPeroneusLong	14LSol	15LExtDigLong	16LFlexDigLong	17RAddLong	18RGlutMax	19RGlutMed	20RIliopsoas	21RSemiMemb	22RBicFemLong	23RRecFem	24RVastMed	25RVastLat	26RGasMed	27RTibAnt	28RTibPost	29RPeroneusLong	30RSol	31RExtDigLong	32RFlexDigLong
34.688	0.010834	-0.16983	0.054016	-0.00061	-0.047302	0.021057	0.075073	0.009766	-0.011597	0.015106	-0.070038	0.014343	0.070343	-0.058289	0.11337	0.01358	0.007324	0.15396	-0.002594	0.097046	-0.12894	0.23605	-0.1416	0.023651	0.029144	-0.002747	-0.002747	-0.005341	-0.014801	-0.31921	-0.005188	0.00946
34.689	-0.001526	-0.1886	0.075989	0.010681	-0.023193	0.041962	0.067596	0.009308	0.001068	-0.048218	0.040436	0.009308	0.068817	0.040436	-0.091095	0.019989	0.005798	0.18997	-0.20233	0.059814	-0.1683	0.19394	-0.18127	0.038757	0.049591	-0.063629	0.12558	-0.012665	-0.31891	-0.066528	-0.002747	-0.003357
34.69	-0.002136	-0.1886	0.1149	-0.004425	-0.029297	0.033417	0.089722	0.017395	0.010223	-0.026703	0.16586	0.015564	-0.001221	0.10269	-0.047607	0.007782	0.028992	0.28519	-0.1329	-0.025482	-0.18097	0.074158	-0.13016	0.037079	0.050659	-0.11032	0.047913	-0.010376	-0.039215	0.072784	-0.003204	-0.014496
34.691	-0.002136	-0.19608	0.080261	-0.005798	-0.054474	0.06012	0.17136	0.016479	0.029144	-0.029602	0.13901	0.023651	-0.010986	0.10117	-0.024719	0.015411	0.038605	0.25192	0.005646	-0.0914	-0.1033	0.091553	-0.069122	0.000305	0.073547	-0.10559	0.1239	-0.030365	-0.034027	0.29617	-0.004883	-0.00946
34.692	0.00885	-0.21225	0.059204	-0.014496	-0.089722	-0.02655	0.15915	0.012665	0.04364	-0.007782	0.12573	0.009918	-0.013733	0.069275	-0.04364	0.02243	0.009308	0.18494	0.16846	-0.045319	0.080872	0.10376	-0.019684	0.010071	0.079346	-0.10254	-0.009003	-0.031128	1.1949	0.25665	-0.003662	-0.005341
34.693	0.028381	-0.20081	0.045166	0.005188	-0.033112	-0.098877	0.12497	-0.000458	0.059357	0.006104	0.11581	0.010529	-0.027008	0.050964	-0.2179	0.016479	0.027924	0.13062	-0.067749	0.077057	0.11749	-0.04837	0.088806	0.004578	0.060425	0.016632	-0.1973	-0.05127	0.75516	0.35782	-0.003967	0.006104
34.694	0.0354	-0.21545	0.084076	-0.003204	-0.031891	-0.083923	0.084991	0.006561	0.058899	-0.000916	0.1326	0.011902	-0.048523	0.089722	-0.23392	0.00885	0.077972	0.12909	-0.4451	0.09903	-0.34286	-0.32837	0.091705	-0.022888	0.064697	0.036316	-0.060272	-0.046234	-0.99197	0.52521	-0.001984	0.014191
34.695	0.034485	-0.23895	0.036316	-0.003357	-0.004883	-0.06073	0.075684	0.009308	0.055084	-0.00824	0.1474	0.012512	-0.058136	0.040131	-0.23636	0.017853	0.07431	0.068665	-0.81741	0.061646	-0.38193	-0.30823	0.13397	-0.058136	0.06134	0.015564	0.11231	-0.035858	-0.83435	0.43152	-0.003815	-0.006866
34.696	0.03067	-0.2388	0.014648	0.000763	0.038757	-0.035248	0.073395	0.00946	0.054016	-0.018158	0.15472	0.00473	-0.062256	0.040283	-0.19531	0.0177	0.027313	0.09552	-0.4866	0.063782	-0.51834	-0.071564	0.055542	-0.056305	0.043945	-0.073547	0.000458	-0.15671	0.72617	-0.012512	-0.001526	-0.005493
34.697	0.027313	-0.24902	0.00061	0.003052	0.035706	-0.022125	0.036163	-0.00412	0.067291	-0.043335	0.086975	0.00351	-0.005493	0.11093	-0.12238	0.018768	-0.037537	0.056763	-0.056305	0.063934	-0.37125	0.026245	-0.060883	0.015411	0.048676	-0.14999	-0.075073	0.011749	0.35294	-0.36011	-0.006866	-0.009155
34.698	0.02182	-0.26169	0.022583	0.012665	0.016632	-0.041504	0.020142	0.002747	0.079651	-0.043182	0.16525	0.006561	-0.032959	0.1358	0.19257	0.015717	-0.10941	0.067291	0.091705	0.006104	-0.12909	0.089264	-0.12604	0.16174	0.057678	-0.12909	0.06134	0.14175	-1.5152	-0.34012	-0.005493	-0.018768
34.699	0.019379	-0.24979	0.056915	0.005646	0.001221	-0.048523	0.029144	0.005188	0.076904	-0.037537	0.15152	0.006256	-0.001221	0.075226	0.73059	0.029602	-0.082092	0.098877	0.59937	-0.024414	0.04303	-0.063934	-0.22919	0.15259	-0.078735	-0.15991	-0.002441	-0.026093	-0.51773	-0.33646	-0.003815	-0.01297
34.7	0.024261	-0.21194	0.076599	0.002136	-0.005341	-0.067444	0.027466	0.001831	0.079346	-0.052185	0.053558	0.00351	0.006104	0.068512	0.4538	0.016174	-0.085907	0.06546	0.49271	0.012207	0.19943	0.007629	-0.21896	0.16205	-0.056763	-0.10193	-0.072327	-0.20325	0.54993	0.020294	-0.003204	-0.009766
34.701	0.020599	-0.16739	-0.042419	0.012665	-0.014038	-0.047913	0.018005	-0.000153	0.085602	-0.083466	-0.21057	-0.034332	0.078278	0.12894	0.071106	0.014191	-0.056152	0.18021	-0.25696	0.037842	0.25024	0.11322	-0.15945	0.10086	-0.018158	-0.06012	-0.005035	-0.20355	0.94666	0.36026	0.000153	-0.00473
34.702	0.017853	-0.20569	-0.17227	-0.003967	-0.010986	-0.050812	-0.005646	0	0.081329	-0.084229	-0.34134	-0.024872	0.15457	0.16998	0.21255	0.024414	-0.007019	0.13962	-0.50537	0.042267	0.1384	0.2092	-0.086823	0.071106	-0.064087	0.10452	0.02655	0.20218	0.7579	0.39932	-0.003967	-0.003357
34.703	0.020294	-0.21316	-0.18158	0.011139	-0.005493	-0.030975	0.023956	-0.00351	0.090027	-0.024567	-0.19821	-0.011902	0.10056	0.12146	-0.019684	0.011749	-0.014343	0.096741	-0.49011	0.04425	-0.012054	0.32135	-0.007935	0.12817	-0.06546	0.17075	0.019684	-0.18509	-0.024261	0.18372	-0.007019	0.000458
34.704	0.014038	-0.22568	0.022278	0.00824	-0.006866	-0.037842	0.04364	0	0.090332	-0.02655	-0.19409	-0.006866	0.081482	0.037537	-0.28198	-0.00412	-0.005798	0.13199	-0.13855	0.025482	0.049744	0.23956	0.23727	0.17654	-0.17395	0.10269	0.045776	-0.1001	-0.46799	-0.094604	-0.011444	0
34.705	0.025024	-0.23377	0.35965	0.021362	-0.008545	-0.063934	0.054016	-0.001678	0.11261	-0.010376	-0.1149	0.001831	0.057068	-0.002594	-0.44174	-0.005341	0.019684	0.18249	0.48523	-0.054169	0.03952	0.11261	0.28214	0.057678	-0.26321	0.13763	0.13092	0.51697	-0.9729	-0.15106	-0.005341	-0.010223
34.706	0.011444	-0.31113	0.1416	0.006256	0.004272	-0.050201	0.037079	0.000305	0.10025	-0.005341	-0.049133	0.006104	0.00885	-0.076447	-0.42358	-0.011139	0.019073	0.19287	1.0428	-0.061951	-0.02655	0.076141	0.23071	0.12283	-0.1268	0.11154	0.026245	0.37842	0.89768	-0.008545	-0.000916	-0.005035
34.707	0.010681	-0.33646	0.037842	0.00885	-0.002747	-0.033264	0.022125	0.003052	0.091858	-0.027924	-0.084229	0.005188	0.036011	-0.19348	-0.38467	-0.001221	0.003204	0.10498	0.37872	-0.019989	-0.04837	0.19196	-0.1207	0.024719	0.014343	0.11688	-0.003052	0.19852	1.0216	-0.21729	-0.008545	0.000305
34.708	-0.00061	-0.2977	0.000763	-0.000305	-0.021667	-0.00061	0.041504	0.007629	0.098572	-0.009155	-0.04364	0.007324	0.0354	-0.23941	-0.17883	-0.002289	0.010834	0.011597	0.13397	0.011749	-0.033569	0.1918	-0.25513	-0.17349	-0.057983	0.10483	0.053558	0.060272	0.99411	-0.29831	-0.003052	-0.002747
34.709	0.005035	-0.31158	-0.04715	0.001068	-0.040741	-0.015717	0.025787	0.006561	0.092163	0.015259	-0.11154	0.012665	0.007477	-0.16754	-0.08667	-0.001221	0.011139	-0.007782	-0.66177	-0.13855	-0.0737	0.17075	-0.20813	-0.030365	-0.074768	0.094147	0.049744	0.006104	0.74677	0.11353	-0.012665	0.001068
34.71	0.016785	-0.31876	-0.086212	-0.005341	-0.044708	-0.046387	0.014496	0.002441	0.08728	0.011749	-0.13931	0.005493	0.044861	-0.076141	0.10437	-0.015717	0.016479	-0.001831	-0.44037	-0.16403	-0.06897	0.10284	-0.112	0.028381	-0.12817	0.073547	0.032196	-0.043335	-0.84579	0.13733	-0.00412	-0.005646
34.711	0.022736	-0.31097	-0.083313	0.000458	0.00351	-0.056	0.025482	0.009918	0.077057	0.009613	-0.12009	0.008087	0.087891	-0.021667	0.28366	-0.00885	0.022583	-0.090027	0.12451	-0.15793	-0.089264	-0.041351	0.025482	0.013885	-0.13519	0.054016	-0.009003	-0.058136	-0.9169	-0.099792	-0.002441	-0.004578
34.712	0.00946	-0.28763	-0.084076	0.00946	0.052338	-0.038757	0.00061	0.003967	0.06134	0.029907	-0.016327	0.005646	0.10681	-0.069427	0.19409	-0.010681	0.024872	-0.081329	0.028687	0.015259	-0.079651	-0.029449	-0.014191	-0.11459	-0.12192	0.03418	0.017242	0.008545	-0.10849	-0.30792	-0.001373	-0.001526
34.713	0.013275	-0.26993	-0.12009	0.014496	0.008392	-0.02533	0.019226	-0.000458	0.066376	0.00885	0.059509	0.010986	0.13702	-0.071716	0.10895	-0.006256	0.021362	-0.042114	-0.54184	0.13275	-0.083771	-0.032959	0.004425	-0.047607	-0.05127	0.020294	0.070953	-0.014191	0.98831	-0.24017	-0.005646	0.001526
34.714	0.016479	-0.28473	-0.12024	0.017242	-0.01709	-0.006866	0.019226	0.003967	0.052185	0.014038	0.10056	0.000916	-0.009766	-0.074158	0.098877	-0.03006	0.012054	-0.090332	-0.75974	0.075226	-0.076141	-0.036011	-0.14297	0.13763	0.12711	0.020447	0.055389	-0.02655	1.003	-0.2388	-0.002899	0.001831
34.715	0.016937	-0.28824	-0.092468	0.014343	0.005341	0.006561	0.025482	0.011902	0.058441	-0.012817	0.12878	-0.014191	-0.13001	-0.021362	-0.053558	-0.007477	0.016937	-0.1445	-0.40146	0.14877	-0.057678	-0.021667	-0.60898	0.03952	0.30243	0.027008	0.055847	-0.029449	-0.6015	-0.23163	-0.00351	0.002747
34.716	0.016022	-0.25711	-0.077362	-0.002441	-0.021362	0.058136	0.032959	0.007935	0.05249	-0.088806	0.087585	0.11688	-0.14175	0.021057	0.42908	-0.004578	-0.001831	-0.14786	-0.32486	0.11093	-0.048981	0.00885	-0.79346	0.061646	0.31967	0.027161	0.12466	-0.033722	-0.92987	-0.058289	0.000763	0.009766
34.717	0.004578	-0.23544	-0.062103	-0.005646	-0.082855	0.007172	0.020294	0.013428	0.046539	-0.064392	0.079956	0.056	-0.098877	0.046997	-0.11704	-0.022278	0.012665	-0.064697	-0.17044	-0.019531	-0.15411	0.067444	-0.44678	0.092926	0.23483	0.028229	-0.074921	-0.03418	-0.078583	0.05249	0.001526	0.007629
